<svg id="グループ_48" data-name="グループ 48" xmlns="http://www.w3.org/2000/svg" xmlns:xlink="http://www.w3.org/1999/xlink" width="255.535" height="163.05" viewBox="0 0 255.535 163.05">
  <defs>
    <clipPath id="clip-path">
      <rect id="長方形_83" data-name="長方形 83" width="255.535" height="163.05" fill="none"/>
    </clipPath>
    <clipPath id="clip-path-3">
      <rect id="長方形_31" data-name="長方形 31" width="114.754" height="8.373" fill="none"/>
    </clipPath>
    <clipPath id="clip-path-4">
      <rect id="長方形_33" data-name="長方形 33" width="28.127" height="10.98" fill="none"/>
    </clipPath>
    <clipPath id="clip-path-5">
      <rect id="長方形_36" data-name="長方形 36" width="103.744" height="47.638" fill="none"/>
    </clipPath>
    <clipPath id="clip-path-6">
      <path id="パス_23" data-name="パス 23" d="M274.831,180.678v47.638c18.629-14.574,54.4-35.194,103.745-30.492V180.678Z" transform="translate(-274.831 -180.678)" fill="none"/>
    </clipPath>
    <linearGradient id="linear-gradient" x1="-0.643" y1="1.444" x2="-0.64" y2="1.444" gradientUnits="objectBoundingBox">
      <stop offset="0" stop-color="#fff"/>
      <stop offset="0.237" stop-color="#fff"/>
      <stop offset="1" stop-color="#231815"/>
    </linearGradient>
    <clipPath id="clip-path-7">
      <rect id="長方形_65" data-name="長方形 65" width="31.669" height="5.137" fill="none"/>
    </clipPath>
    <clipPath id="clip-path-8">
      <rect id="長方形_66" data-name="長方形 66" width="26.176" height="3.822" fill="none"/>
    </clipPath>
    <clipPath id="clip-path-9">
      <rect id="長方形_67" data-name="長方形 67" width="0.558" height="0.982" fill="none"/>
    </clipPath>
    <clipPath id="clip-path-10">
      <rect id="長方形_68" data-name="長方形 68" width="0.323" height="0.982" fill="none"/>
    </clipPath>
    <clipPath id="clip-path-12">
      <rect id="長方形_71" data-name="長方形 71" width="32.355" height="5.248" fill="none"/>
    </clipPath>
    <clipPath id="clip-path-13">
      <rect id="長方形_72" data-name="長方形 72" width="0.571" height="1.003" fill="none"/>
    </clipPath>
    <clipPath id="clip-path-14">
      <rect id="長方形_80" data-name="長方形 80" width="32.88" height="32.88" fill="none"/>
    </clipPath>
  </defs>
  <g id="グループ_47" data-name="グループ 47" clip-path="url(#clip-path)">
    <g id="グループ_46" data-name="グループ 46">
      <g id="グループ_45" data-name="グループ 45" clip-path="url(#clip-path)">
        <path id="パス_3" data-name="パス 3" d="M24.94,162.726c31.647.729,128.114,0,195.078,0,24.971,0,24.178-17.06,28.7-25.636,23.953-45.43-23.105-42.542-20.61-86.029,3.653-63.672-98.648-61.855-132.611-27S3.308,12.1,3.558,102.407c.045,16.04-16.5,59.446,21.382,60.319" transform="translate(0 0)" fill="#fafafa"/>
        <path id="パス_4" data-name="パス 4" d="M241.581,324.8v-6.423h-5.548a13.833,13.833,0,0,0-1.694-4.093l3.922-3.922-4.542-4.542-3.922,3.922a13.838,13.838,0,0,0-4.093-1.694v-5.548h-6.424v5.548a13.837,13.837,0,0,0-4.093,1.694l-3.922-3.922-4.542,4.542,3.922,3.922a13.833,13.833,0,0,0-1.694,4.093H203.4V324.8h5.548a13.836,13.836,0,0,0,1.694,4.093l-3.922,3.922,4.542,4.542,3.922-3.922a13.829,13.829,0,0,0,4.093,1.694v5.548H225.7v-5.548a13.83,13.83,0,0,0,4.093-1.694l3.922,3.922,4.542-4.542-3.922-3.922a13.836,13.836,0,0,0,1.694-4.093Zm-19.089,4.044a7.256,7.256,0,1,1,7.256-7.256,7.256,7.256,0,0,1-7.256,7.256" transform="translate(-145.652 -216.608)" fill="#bee8e9"/>
        <path id="パス_5" data-name="パス 5" d="M257.587,361.852a5.173,5.173,0,1,1,5.173-5.173,5.179,5.179,0,0,1-5.173,5.173m0-9.624a4.451,4.451,0,1,0,4.452,4.451,4.457,4.457,0,0,0-4.452-4.451" transform="translate(-180.747 -251.704)" fill="#bee8e9"/>
        <path id="パス_6" data-name="パス 6" d="M541.818,124.508a5.357,5.357,0,0,0-10.282-.693,2,2,0,0,0-2.607,2.242,2.664,2.664,0,1,0-.541,5.273c.053,0,.105,0,.157-.005.033,0,.065.005.1.005h13.019l.016,0,.064,0a3.412,3.412,0,0,0,.076-6.822" transform="translate(-376.456 -86.119)" fill="#61cacb"/>
        <path id="パス_7" data-name="パス 7" d="M530.969,145.182a1.943,1.943,0,0,1,1.917-2.126c.027,0,.052,0,.079,0a2.171,2.171,0,1,0-.721,4.281,2.129,2.129,0,0,1-1.275-2.158" transform="translate(-379.81 -102.415)" fill="#7fd4d5"/>
        <path id="パス_8" data-name="パス 8" d="M561.522,129.226c0-1.516-.636-2.763-3.075-2.744a4.217,4.217,0,0,0-4.038-4,4.827,4.827,0,0,0-3.539,2.155,4.352,4.352,0,0,1,7.472,2.028,2.772,2.772,0,0,1,2.059,4.558,2.694,2.694,0,0,0,1.121-1.994" transform="translate(-394.463 -87.703)" fill="#7fd4d5"/>
        <path id="パス_9" data-name="パス 9" d="M541.68,133.905a1.847,1.847,0,0,0-.243-.017,1.6,1.6,0,0,0-1.353.712,2.062,2.062,0,0,0-.224,1.569c.006,0,.054.076.06.077a3.409,3.409,0,0,1-.045-.423,1.884,1.884,0,0,1,1.8-1.918" transform="translate(-386.534 -95.873)" fill="#7fd4d5"/>
        <path id="パス_10" data-name="パス 10" d="M555.65,141.021a3.207,3.207,0,0,1-.405-3.227c.839-1.666,2.684-2.245,4.669-.991,0,0-2.946-1.135-4.036.949s-.228,3.269-.228,3.269" transform="translate(-397.387 -97.476)" fill="#7fd4d5"/>
        <path id="パス_11" data-name="パス 11" d="M550.024,138.359l-3.932,3.932h7.865Z" transform="translate(-391.041 -99.075)" fill="#1b629f"/>
        <rect id="長方形_24" data-name="長方形 24" width="3.507" height="0.547" transform="translate(157.23 43.653)" fill="#1b629f"/>
        <rect id="長方形_25" data-name="長方形 25" width="3.507" height="0.547" transform="translate(157.23 44.482)" fill="#1b629f"/>
        <rect id="長方形_26" data-name="長方形 26" width="3.507" height="0.403" transform="translate(157.23 45.382)" fill="#1b629f"/>
        <rect id="長方形_27" data-name="長方形 27" width="3.507" height="0.332" transform="translate(157.23 46.246)" fill="#1b629f"/>
        <rect id="長方形_28" data-name="長方形 28" width="3.507" height="0.247" transform="translate(157.23 47.117)" fill="#1b629f"/>
        <rect id="長方形_29" data-name="長方形 29" width="3.507" height="0.169" transform="translate(157.23 47.985)" fill="#1b629f"/>
        <rect id="長方形_30" data-name="長方形 30" width="3.507" height="0.13" transform="translate(157.23 48.832)" fill="#1b629f"/>
        <path id="パス_12" data-name="パス 12" d="M225.827,214.433l4.9-8.374a10.4,10.4,0,0,1-3.084-2.6l-7.418,6.248a20.145,20.145,0,0,0,5.6,4.723" transform="translate(-157.695 -145.693)" fill="#008fb3"/>
        <path id="パス_13" data-name="パス 13" d="M249.365,223.587v-9.7a10.3,10.3,0,0,1-4.507-1.278l-4.9,8.374a19.964,19.964,0,0,0,9.4,2.6" transform="translate(-171.829 -152.243)" fill="#008fb3"/>
        <path id="パス_14" data-name="パス 14" d="M273.779,110.038v9.706a10.355,10.355,0,0,1-.2,20.707c-.167,0-.332,0-.5-.012v9.7c.165,0,.33.012.5.012a20.057,20.057,0,0,0,.2-40.114" transform="translate(-195.548 -78.795)" fill="#008fb3"/>
        <path id="パス_15" data-name="パス 15" d="M243.61,112.212l4.327,8.68a10.31,10.31,0,0,1,3.346-.967v-9.734a19.963,19.963,0,0,0-7.673,2.021" transform="translate(-174.442 -78.905)" fill="#f9a71a"/>
        <path id="パス_16" data-name="パス 16" d="M223.988,125.988l-4.327-8.68a20.108,20.108,0,0,0-9.5,9.964l8.866,3.905a10.389,10.389,0,0,1,4.957-5.19" transform="translate(-150.493 -84.001)" fill="#f9a71a"/>
        <path id="パス_17" data-name="パス 17" d="M205.835,191.756a19.956,19.956,0,0,0,4.085,8.461l7.417-6.248a10.315,10.315,0,0,1-1.893-3.764Z" transform="translate(-147.393 -136.2)" fill="#008fb3"/>
        <path id="パス_18" data-name="パス 18" d="M213.883,163.672a10.352,10.352,0,0,1,.392-2.809l-8.922-3.93a19.87,19.87,0,0,0-.956,9.631l9.584-1.547a10.24,10.24,0,0,1-.1-1.344" transform="translate(-146.209 -112.375)" fill="#ec6625"/>
        <g id="グループ_12" data-name="グループ 12" transform="translate(73.605 134.462)" opacity="0.2">
          <g id="グループ_11" data-name="グループ 11">
            <g id="グループ_10" data-name="グループ 10" clip-path="url(#clip-path-3)">
              <path id="パス_19" data-name="パス 19" d="M323.609,481.195c19.123-.047,54.365.876,50.014-3.8s-27.306-.1-46.122-1.662-35.852-3.362-55.1-1.053-14.012,4.97-5.567,5.721c15.523,1.38,18.276,1.976,27.276,1.218,26.341-2.218,22.052-.407,29.5-.425" transform="translate(-259.237 -473.579)" fill="#1b629f"/>
            </g>
          </g>
        </g>
        <rect id="長方形_32" data-name="長方形 32" width="28.127" height="13.883" transform="translate(115.841 119.78)" fill="#71859c"/>
        <path id="パス_20" data-name="パス 20" d="M417.615,475.084H365.171v-1.624a2.7,2.7,0,0,1,2.7-2.7h47.049a2.7,2.7,0,0,1,2.7,2.7Z" transform="translate(-261.489 -337.1)" fill="#9dacbc"/>
        <g id="グループ_15" data-name="グループ 15" transform="translate(115.841 119.78)" opacity="0.5">
          <g id="グループ_14" data-name="グループ 14">
            <g id="グループ_13" data-name="グループ 13" clip-path="url(#clip-path-4)">
              <path id="パス_21" data-name="パス 21" d="M407.994,421.868v10.98c10.488-7.657,28.127-4.039,28.127-4.039v-6.941Z" transform="translate(-407.994 -421.868)" fill="#10375d"/>
            </g>
          </g>
        </g>
        <path id="パス_22" data-name="パス 22" d="M371.331,400.2h-102.1a3.369,3.369,0,0,1-3.369-3.368V386.759H374.7v10.068a3.369,3.369,0,0,1-3.369,3.368" transform="translate(-190.376 -276.947)" fill="#9dacbc"/>
        <rect id="長方形_34" data-name="長方形 34" width="103.744" height="58.512" transform="translate(78.032 51.3)" fill="#c7e3f5"/>
        <g id="グループ_20" data-name="グループ 20" transform="translate(78.032 51.3)" opacity="0.7" style="mix-blend-mode: screen;isolation: isolate">
          <g id="グループ_19" data-name="グループ 19">
            <g id="グループ_18" data-name="グループ 18" clip-path="url(#clip-path-5)">
              <g id="グループ_17" data-name="グループ 17" transform="translate(0 0)">
                <g id="グループ_16" data-name="グループ 16" clip-path="url(#clip-path-6)">
                  <rect id="長方形_35" data-name="長方形 35" width="113.665" height="93.128" transform="matrix(0.866, -0.5, 0.5, 0.866, -20.628, 11.91)" fill="url(#linear-gradient)"/>
                </g>
              </g>
            </g>
          </g>
        </g>
        <path id="パス_24" data-name="パス 24" d="M374.7,235.315H265.863V175.079a3.368,3.368,0,0,1,3.368-3.369h102.1a3.369,3.369,0,0,1,3.369,3.369Zm-103.745-5.093h98.652V176.8H270.956Z" transform="translate(-190.377 -122.957)" fill="#1b629f"/>
        <rect id="長方形_37" data-name="長方形 37" width="5.71" height="7.005" transform="translate(84.588 100.26)" fill="#008fb3"/>
        <rect id="長方形_38" data-name="長方形 38" width="5.71" height="9.999" transform="translate(92.301 97.266)" fill="#008fb3"/>
        <rect id="長方形_39" data-name="長方形 39" width="5.71" height="14.01" transform="translate(100.014 93.255)" fill="#008fb3"/>
        <rect id="長方形_40" data-name="長方形 40" width="5.71" height="17.676" transform="translate(107.727 89.589)" fill="#008fb3"/>
        <rect id="長方形_41" data-name="長方形 41" width="5.71" height="16.812" transform="translate(123.153 90.454)" fill="#008fb3"/>
        <rect id="長方形_42" data-name="長方形 42" width="5.71" height="18.99" transform="translate(130.866 88.275)" fill="#008fb3"/>
        <rect id="長方形_43" data-name="長方形 43" width="5.71" height="21.169" transform="translate(138.579 86.097)" fill="#008fb3"/>
        <rect id="長方形_44" data-name="長方形 44" width="5.71" height="25.111" transform="translate(146.292 82.155)" fill="#008fb3"/>
        <rect id="長方形_45" data-name="長方形 45" width="5.71" height="18.99" transform="translate(154.005 88.275)" fill="#008fb3"/>
        <rect id="長方形_46" data-name="長方形 46" width="5.71" height="28.949" transform="translate(161.718 78.316)" fill="#008fb3"/>
        <rect id="長方形_47" data-name="長方形 47" width="5.71" height="35.086" transform="translate(169.431 72.179)" fill="#008fb3"/>
        <rect id="長方形_48" data-name="長方形 48" width="5.71" height="21.169" transform="translate(115.44 86.097)" fill="#008fb3"/>
        <rect id="長方形_49" data-name="長方形 49" width="5.71" height="3.529" transform="translate(84.588 103.736)" fill="#61cacb"/>
        <rect id="長方形_50" data-name="長方形 50" width="5.71" height="5.037" transform="translate(92.301 102.228)" fill="#61cacb"/>
        <rect id="長方形_51" data-name="長方形 51" width="5.71" height="7.058" transform="translate(100.014 100.207)" fill="#61cacb"/>
        <rect id="長方形_52" data-name="長方形 52" width="5.71" height="8.905" transform="translate(107.727 98.36)" fill="#61cacb"/>
        <rect id="長方形_53" data-name="長方形 53" width="5.71" height="8.469" transform="translate(123.153 98.796)" fill="#61cacb"/>
        <rect id="長方形_54" data-name="長方形 54" width="5.71" height="9.567" transform="translate(130.866 97.698)" fill="#61cacb"/>
        <rect id="長方形_55" data-name="長方形 55" width="5.71" height="10.664" transform="translate(138.579 96.601)" fill="#61cacb"/>
        <rect id="長方形_56" data-name="長方形 56" width="5.71" height="12.65" transform="translate(146.292 94.615)" fill="#61cacb"/>
        <rect id="長方形_57" data-name="長方形 57" width="5.71" height="9.567" transform="translate(154.005 97.698)" fill="#61cacb"/>
        <rect id="長方形_58" data-name="長方形 58" width="5.71" height="14.584" transform="translate(161.718 92.681)" fill="#61cacb"/>
        <rect id="長方形_59" data-name="長方形 59" width="5.71" height="17.676" transform="translate(169.431 89.589)" fill="#61cacb"/>
        <rect id="長方形_60" data-name="長方形 60" width="5.71" height="10.664" transform="translate(115.44 96.601)" fill="#61cacb"/>
        <path id="パス_25" data-name="パス 25" d="M375.428,236.779l-7.785,6.2-7.6,9.807-7.651-6.072-7.369,4-8.142,2.174-7.619,2.151-7.631-4.621-.108-.064-7.4,3.86-8.142,3.673-7.22,4-8.137,2.981H283.8v.448h6.9l8.243-3.022,7.234-4,8.138-3.67,7.188-3.75,7.627,4.621.06.037,7.8-2.2,8.171-2.185,7.174-3.886,7.6,6.03.178.139,7.829-10.111,7.636-6.076h6.866v-.448Z" transform="translate(-203.221 -169.551)" fill="#177baa"/>
        <path id="パス_26" data-name="パス 26" d="M306.266,333.638a1.122,1.122,0,1,1-1.122-1.122,1.122,1.122,0,0,1,1.122,1.122" transform="translate(-217.701 -238.105)" fill="#177baa"/>
        <path id="パス_27" data-name="パス 27" d="M307.028,334.9a.621.621,0,1,1-.621-.621.621.621,0,0,1,.621.621" transform="translate(-218.965 -239.369)" fill="#bde9e9"/>
        <path id="パス_28" data-name="パス 28" d="M333.431,323.038a1.122,1.122,0,1,1-1.122-1.122,1.122,1.122,0,0,1,1.122,1.122" transform="translate(-237.153 -230.515)" fill="#177baa"/>
        <path id="パス_29" data-name="パス 29" d="M334.193,324.3a.621.621,0,1,1-.621-.621.621.621,0,0,1,.621.621" transform="translate(-238.417 -231.779)" fill="#bde9e9"/>
        <path id="パス_30" data-name="パス 30" d="M360.6,308.29a1.122,1.122,0,1,1-1.122-1.122,1.122,1.122,0,0,1,1.122,1.122" transform="translate(-256.606 -219.954)" fill="#177baa"/>
        <path id="パス_31" data-name="パス 31" d="M361.359,309.554a.621.621,0,1,1-.621-.621.621.621,0,0,1,.621.621" transform="translate(-257.87 -221.218)" fill="#bde9e9"/>
        <path id="パス_32" data-name="パス 32" d="M387.762,295.858a1.122,1.122,0,1,1-1.122-1.122,1.122,1.122,0,0,1,1.122,1.122" transform="translate(-276.058 -211.052)" fill="#177baa"/>
        <path id="パス_33" data-name="パス 33" d="M388.524,297.122a.621.621,0,1,1-.621-.621.621.621,0,0,1,.621.621" transform="translate(-277.322 -212.316)" fill="#bde9e9"/>
        <path id="パス_34" data-name="パス 34" d="M414.927,282.656a1.122,1.122,0,1,1-1.122-1.122,1.122,1.122,0,0,1,1.122,1.122" transform="translate(-295.51 -201.599)" fill="#177baa"/>
        <path id="パス_35" data-name="パス 35" d="M415.69,283.92a.621.621,0,1,1-.621-.621.621.621,0,0,1,.621.621" transform="translate(-296.775 -202.862)" fill="#bde9e9"/>
        <path id="パス_36" data-name="パス 36" d="M442.093,298.045a1.122,1.122,0,1,1-1.122-1.122,1.122,1.122,0,0,1,1.122,1.122" transform="translate(-314.963 -212.618)" fill="#177baa"/>
        <path id="パス_37" data-name="パス 37" d="M442.856,299.309a.621.621,0,1,1-.621-.621.621.621,0,0,1,.621.621" transform="translate(-316.227 -213.882)" fill="#bde9e9"/>
        <path id="パス_38" data-name="パス 38" d="M469.258,291.2a1.122,1.122,0,1,1-1.122-1.122,1.122,1.122,0,0,1,1.122,1.122" transform="translate(-334.415 -207.719)" fill="#177baa"/>
        <path id="パス_39" data-name="パス 39" d="M470.021,292.467a.621.621,0,1,1-.621-.621.621.621,0,0,1,.621.621" transform="translate(-335.679 -208.983)" fill="#bde9e9"/>
        <path id="パス_40" data-name="パス 40" d="M496.424,284.189a1.122,1.122,0,1,1-1.122-1.122,1.122,1.122,0,0,1,1.122,1.122" transform="translate(-353.868 -202.696)" fill="#177baa"/>
        <path id="パス_41" data-name="パス 41" d="M497.187,285.453a.621.621,0,1,1-.621-.621.621.621,0,0,1,.621.621" transform="translate(-355.132 -203.96)" fill="#bde9e9"/>
        <path id="パス_42" data-name="パス 42" d="M523.589,270.287a1.122,1.122,0,1,1-1.122-1.122,1.122,1.122,0,0,1,1.122,1.122" transform="translate(-373.32 -192.742)" fill="#177baa"/>
        <path id="パス_43" data-name="パス 43" d="M524.351,271.552a.621.621,0,1,1-.621-.621.621.621,0,0,1,.621.621" transform="translate(-374.584 -194.006)" fill="#bde9e9"/>
        <path id="パス_44" data-name="パス 44" d="M550.755,290.91a1.122,1.122,0,1,1-1.122-1.122,1.122,1.122,0,0,1,1.122,1.122" transform="translate(-392.773 -207.509)" fill="#177baa"/>
        <path id="パス_45" data-name="パス 45" d="M551.518,292.174a.621.621,0,1,1-.621-.621.621.621,0,0,1,.621.621" transform="translate(-394.037 -208.773)" fill="#bde9e9"/>
        <path id="パス_46" data-name="パス 46" d="M577.92,256.121A1.122,1.122,0,1,1,576.8,255a1.122,1.122,0,0,1,1.122,1.122" transform="translate(-412.225 -182.598)" fill="#177baa"/>
        <path id="パス_47" data-name="パス 47" d="M578.682,257.385a.621.621,0,1,1-.621-.621.621.621,0,0,1,.621.621" transform="translate(-413.488 -183.862)" fill="#bde9e9"/>
        <path id="パス_48" data-name="パス 48" d="M605.086,235.017a1.122,1.122,0,1,1-1.122-1.122,1.122,1.122,0,0,1,1.122,1.122" transform="translate(-431.677 -167.486)" fill="#177baa"/>
        <path id="パス_49" data-name="パス 49" d="M605.848,236.281a.621.621,0,1,1-.621-.621.621.621,0,0,1,.621.621" transform="translate(-432.941 -168.75)" fill="#bde9e9"/>
        <path id="パス_50" data-name="パス 50" d="M299.039,200.127v3.605h-3.605a3.605,3.605,0,1,0,3.605-3.605" transform="translate(-211.552 -143.305)" fill="#ec6625"/>
        <path id="パス_51" data-name="パス 51" d="M295.434,204.379h3.605l-1.329-3.349a3.6,3.6,0,0,0-2.276,3.349" transform="translate(-211.552 -143.952)" fill="#f9a71a"/>
        <path id="パス_52" data-name="パス 52" d="M303.449,200.383l1.329,3.349v-3.605a3.592,3.592,0,0,0-1.329.256" transform="translate(-217.291 -143.305)" fill="#008fb3"/>
        <path id="パス_53" data-name="パス 53" d="M305.889,209.108a1.473,1.473,0,1,1-1.474-1.473,1.473,1.473,0,0,1,1.474,1.473" transform="translate(-216.928 -148.682)" fill="#bde9e9"/>
        <path id="パス_54" data-name="パス 54" d="M299.039,236.779v3.605h-3.605a3.605,3.605,0,1,0,3.605-3.605" transform="translate(-211.552 -169.551)" fill="#f9a71a"/>
        <path id="パス_55" data-name="パス 55" d="M295.434,241.031h3.605l-1.329-3.349a3.6,3.6,0,0,0-2.276,3.349" transform="translate(-211.552 -170.197)" fill="#ec6625"/>
        <path id="パス_56" data-name="パス 56" d="M303.449,237.035l1.329,3.349v-3.605a3.592,3.592,0,0,0-1.329.256" transform="translate(-217.291 -169.551)" fill="#008fb3"/>
        <path id="パス_57" data-name="パス 57" d="M305.889,245.76a1.473,1.473,0,1,1-1.474-1.473,1.473,1.473,0,0,1,1.474,1.473" transform="translate(-216.928 -174.927)" fill="#bde9e9"/>
        <path id="パス_58" data-name="パス 58" d="M523.9,203.481v-3.354a3.759,3.759,0,1,0,3.731,3.354Z" transform="translate(-372.463 -143.305)" fill="#61cacb"/>
        <path id="パス_59" data-name="パス 59" d="M537.094,203.481a3.753,3.753,0,0,0-3.731-3.354v3.354Z" transform="translate(-381.926 -143.305)" fill="#008fb3"/>
        <path id="パス_60" data-name="パス 60" d="M526.021,208.912h0A2.911,2.911,0,1,1,528.932,206a2.911,2.911,0,0,1-2.911,2.911" transform="translate(-374.584 -145.427)" fill="#fff"/>
        <path id="パス_61" data-name="パス 61" d="M530.249,211.482h0l-.227.122-.034-.134.285-.152h.151v1.3h-.171Z" transform="translate(-379.506 -151.319)" fill="#008fb3"/>
        <path id="パス_62" data-name="パス 62" d="M533.945,211.466h-.5l-.05.335a.661.661,0,0,1,.106-.008.549.549,0,0,1,.281.07.372.372,0,0,1,.187.335.452.452,0,0,1-.485.445.638.638,0,0,1-.325-.08l.044-.134a.581.581,0,0,0,.279.072.288.288,0,0,0,.309-.283c0-.168-.114-.289-.375-.289a1.367,1.367,0,0,0-.181.014l.084-.626h.624Z" transform="translate(-381.782 -151.319)" fill="#008fb3"/>
        <path id="パス_63" data-name="パス 63" d="M559.033,200.127a3.753,3.753,0,1,0,2.919,6.108l-2.919-2.754Z" transform="translate(-397.621 -143.305)" fill="#61cacb"/>
        <path id="パス_64" data-name="パス 64" d="M568.5,200.127v3.354l2.919,2.754a3.751,3.751,0,0,0-2.919-6.108" transform="translate(-407.085 -143.305)" fill="#008fb3"/>
        <path id="パス_65" data-name="パス 65" d="M561.155,208.912h0A2.911,2.911,0,1,1,564.066,206a2.911,2.911,0,0,1-2.911,2.911" transform="translate(-399.743 -145.427)" fill="#fff"/>
        <path id="パス_66" data-name="パス 66" d="M564.714,212.566v-.108l.138-.134c.333-.317.484-.486.486-.682a.233.233,0,0,0-.259-.255.445.445,0,0,0-.277.11l-.056-.124a.574.574,0,0,1,.369-.133.367.367,0,0,1,.4.379c0,.241-.175.436-.449.7l-.1.1v0h.586v.147Z" transform="translate(-404.376 -151.263)" fill="#008fb3"/>
        <path id="パス_67" data-name="パス 67" d="M569.091,211.466h-.5l-.05.335a.666.666,0,0,1,.106-.008.549.549,0,0,1,.281.07.372.372,0,0,1,.187.335.452.452,0,0,1-.486.445.637.637,0,0,1-.325-.08l.044-.134a.583.583,0,0,0,.279.072.288.288,0,0,0,.309-.283c0-.168-.114-.289-.375-.289a1.355,1.355,0,0,0-.181.014l.084-.626h.624Z" transform="translate(-406.949 -151.319)" fill="#008fb3"/>
        <path id="パス_68" data-name="パス 68" d="M594.168,200.127a3.753,3.753,0,0,0,0,7.505v-7.505Z" transform="translate(-422.78 -143.305)" fill="#61cacb"/>
        <path id="パス_69" data-name="パス 69" d="M607.384,203.879a3.752,3.752,0,0,0-3.753-3.752v7.505a3.753,3.753,0,0,0,3.753-3.753" transform="translate(-432.243 -143.305)" fill="#008fb3"/>
        <path id="パス_70" data-name="パス 70" d="M596.29,208.912h0A2.911,2.911,0,1,1,599.2,206a2.911,2.911,0,0,1-2.911,2.911" transform="translate(-424.902 -145.427)" fill="#fff"/>
        <path id="パス_71" data-name="パス 71" d="M600.965,211.466h-.5l-.05.335a.664.664,0,0,1,.106-.008.55.55,0,0,1,.281.07.372.372,0,0,1,.186.335.452.452,0,0,1-.485.445.637.637,0,0,1-.325-.08l.044-.134a.58.58,0,0,0,.279.072.288.288,0,0,0,.309-.283c0-.168-.114-.289-.375-.289a1.366,1.366,0,0,0-.181.014l.084-.626h.624Z" transform="translate(-429.773 -151.319)" fill="#008fb3"/>
        <path id="パス_72" data-name="パス 72" d="M604.636,211.9c0,.443-.164.688-.453.688-.255,0-.427-.239-.431-.67s.188-.678.453-.678.431.244.431.66m-.708.02c0,.339.1.532.265.532.181,0,.267-.211.267-.543s-.082-.532-.265-.532c-.154,0-.267.189-.267.544" transform="translate(-432.33 -151.264)" fill="#008fb3"/>
        <path id="パス_73" data-name="パス 73" d="M348.009,209.927H328.36a1.9,1.9,0,1,1,0-3.807h19.648a1.9,1.9,0,0,1,0,3.807" transform="translate(-233.767 -147.597)" fill="#61cacb"/>
        <rect id="長方形_61" data-name="長方形 61" width="19.317" height="0.341" transform="translate(94.783 59.808)" fill="#bde9e9"/>
        <rect id="長方形_62" data-name="長方形 62" width="9.419" height="0.341" transform="translate(94.783 60.704)" fill="#bde9e9"/>
        <path id="パス_74" data-name="パス 74" d="M348.009,246.579H328.36a1.9,1.9,0,1,1,0-3.807h19.648a1.9,1.9,0,0,1,0,3.807" transform="translate(-233.767 -173.842)" fill="#61cacb"/>
        <rect id="長方形_63" data-name="長方形 63" width="19.317" height="0.341" transform="translate(94.783 70.215)" fill="#bde9e9"/>
        <rect id="長方形_64" data-name="長方形 64" width="9.419" height="0.341" transform="translate(94.783 71.111)" fill="#bde9e9"/>
        <g id="グループ_23" data-name="グループ 23" transform="translate(38.375 134.924)" opacity="0.2">
          <g id="グループ_22" data-name="グループ 22">
            <g id="グループ_21" data-name="グループ 21" clip-path="url(#clip-path-7)">
              <path id="パス_75" data-name="パス 75" d="M152.924,479.878c5.277-.029,15,.538,13.8-2.331s-7.536-.06-12.729-1.02-9.894-2.063-15.2-.646-3.867,3.049-1.537,3.51c4.284.847,5.044,1.212,7.527.748,7.269-1.361,6.086-.25,8.14-.261" transform="translate(-135.159 -475.206)" fill="#1b629f"/>
            </g>
          </g>
        </g>
        <g id="グループ_26" data-name="グループ 26" transform="translate(220.99 143.013)" opacity="0.2">
          <g id="グループ_25" data-name="グループ 25">
            <g id="グループ_24" data-name="グループ 24" clip-path="url(#clip-path-8)">
              <path id="パス_76" data-name="パス 76" d="M793.015,507.17c4.362-.021,12.4.4,11.409-1.734s-6.229-.045-10.521-.759-8.178-1.535-12.568-.48-3.2,2.268-1.27,2.611c3.541.63,4.169.9,6.222.556,6.009-1.012,5.031-.186,6.728-.194" transform="translate(-778.331 -503.694)" fill="#1b629f"/>
            </g>
          </g>
        </g>
        <path id="パス_77" data-name="パス 77" d="M205.243,475.918l-.2,1.418.076.893.388.065,4.351-.207v-.3l-.231-.332-1.942-.409-.708-.664-.034-.538Z" transform="translate(-146.823 -340.735)" fill="#10375d"/>
        <path id="パス_78" data-name="パス 78" d="M162.335,475.991l-.37,1.681v.474a.191.191,0,0,0,.191.19h1.052a.389.389,0,0,0,.063-.005l2.924-.474.033-.212-.248-.35-1.523-.338-.5-.471-.055-.5Z" transform="translate(-115.979 -340.844)" fill="#10375d"/>
        <path id="パス_79" data-name="パス 79" d="M177.057,265.125l3.258-.4.455-.354.185-1.185.016-.62-.319-1.109-.092-.9a1.6,1.6,0,0,0-1.037-1.337l-1-.366-1.5.466-1.057.7.07,2.395.8,1.518Z" transform="translate(-126.006 -185.36)" fill="#f6beac"/>
        <path id="パス_80" data-name="パス 80" d="M180.243,279.334l1.179-.087a.607.607,0,0,0,.561-.65l-.287-2.4-2.39.177.287,2.4a.607.607,0,0,0,.65.56" transform="translate(-128.396 -197.776)" fill="#f6beac"/>
        <path id="パス_81" data-name="パス 81" d="M179.3,258.626l-.77.341.305.48-.029,1.018.055.819-.184.06-.257-.415-.248.133-.006.582.259.626-.617.75-1.781.258-.941-1.989-.245-1.809.892-1.183,1.925-.762,1.1.109.978.489Z" transform="translate(-125.201 -184.414)" fill="#ec6625"/>
        <path id="パス_82" data-name="パス 82" d="M166.9,304.517h9.4v-.451l.406-.686-.379-.993s-.381-3.658-.42-5.912c-.027-1.591.213-3.081.218-5.165a20.258,20.258,0,0,0-1.039-6.482c-.318-1.217-1.921-.908-1.921-.908l-5.109.275c-2.981.481-3.608,2.254-3.016,6.644l1.053,5.873-.1,5.506-.075.985.813.807Z" transform="translate(-118.036 -203.282)" fill="#10375d"/>
        <path id="パス_83" data-name="パス 83" d="M208.948,485.334l.072,0v0Z" transform="translate(-149.622 -347.534)" fill="#2a2a3b"/>
        <path id="パス_84" data-name="パス 84" d="M164.093,389.962l-2.481-.071,1.407-17.5.85-12.81-.087-1.742.594-1.508-.022-.838h5.583l-.144,1.566-3.137,16Z" transform="translate(-115.726 -254.561)" fill="#1b629f"/>
        <path id="パス_85" data-name="パス 85" d="M194.056,389.97l-2.452.119-2.456-17.1-2.718-16.365V355.5h5.449l.234,1.857.711,15.245Z" transform="translate(-133.497 -254.56)" fill="#1b629f"/>
        <path id="パス_86" data-name="パス 86" d="M238.463,261.172l-.462.1-.214.4-.222.681.717-.779.021-.1.173-.091.162-.156Z" transform="translate(-170.113 -187.018)" fill="#f6beac"/>
        <path id="パス_87" data-name="パス 87" d="M240.831,260.943" transform="translate(-172.452 -186.854)" fill="#f9c9c5"/>
        <path id="パス_88" data-name="パス 88" d="M244.735,262.221l-.248-.293.321-.448a.161.161,0,1,1,.232.222Z" transform="translate(-175.07 -187.203)" fill="#f6beac"/>
        <path id="パス_89" data-name="パス 89" d="M245.942,262.7c.129.1.057.248.036.3-.077.2-.168.44-.168.44l-.056.075-.2-.389a1.885,1.885,0,0,1,.214-.366c.034-.038.088-.124.17-.062" transform="translate(-175.837 -188.094)" fill="#f6beac"/>
        <path id="パス_90" data-name="パス 90" d="M243.708,261.063l-.3-.282.425-.413a.161.161,0,0,1,.239.215Z" transform="translate(-174.298 -186.404)" fill="#f6beac"/>
        <path id="パス_91" data-name="パス 91" d="M242.315,257.86l1-1.311a.161.161,0,1,0-.243-.213l-1.136,1.23Z" transform="translate(-173.246 -183.516)" fill="#f6beac"/>
        <path id="パス_92" data-name="パス 92" d="M234.564,260.708l-.4.388-.161.134-.612.511-.217.64-1.573,2.425,1.32.743,1.476-2.036.861-.74.553-.735a2.154,2.154,0,0,0-.592-.971,1.034,1.034,0,0,0-.653-.359" transform="translate(-165.842 -186.686)" fill="#f6beac"/>
        <path id="パス_93" data-name="パス 93" d="M239.87,261.942l.058-.157.3-.165Z" transform="translate(-171.764 -187.339)" fill="#b77373"/>
        <path id="パス_94" data-name="パス 94" d="M205.462,270.873l-1.774-1.165-3.779,4.849-6.927-.811a2.027,2.027,0,0,0-1.061.891,1.715,1.715,0,0,0-.284,1.5l.041.147a1.654,1.654,0,0,0,.814,1.011,2.5,2.5,0,0,0,1.16.155c3.109.072,7-.229,7-.229l.648-.413Z" transform="translate(-137.18 -193.13)" fill="#10375d"/>
        <path id="パス_95" data-name="パス 95" d="M154.564,348.285l.372,1.062.109.646h0s0,0,0,0,0,.292-.015.389a.171.171,0,0,1-.046.1h0l-.006,0a.117.117,0,0,1-.106.027c-.1-.02-.148-.151-.163-.405l-.026-.123-.005-.028v0l-.1-.213,0,0-.064-.1-.051.556a.971.971,0,0,1-.689.112,2.02,2.02,0,0,1-1-.375l.084-1.322.216-.64.277-2.736,1.527.2Z" transform="translate(-109.397 -247.22)" fill="#f6beac"/>
        <path id="パス_96" data-name="パス 96" d="M153.987,363.715l-.006.041a.151.151,0,0,1-.3-.043l.008-.054.163-1.512.349.089-.215,1.479Z" transform="translate(-110.047 -259.323)" fill="#f6beac"/>
        <path id="パス_97" data-name="パス 97" d="M152.548,362.8a.151.151,0,1,1-.3-.047l.014-.092.141-1.149.359.165-.205,1.054Z" transform="translate(-109.021 -258.871)" fill="#f6beac"/>
        <path id="パス_98" data-name="パス 98" d="M155.649,364.266a.151.151,0,0,1-.3-.03v-.013l.121-1.733.383.047-.2,1.71Z" transform="translate(-111.241 -259.568)" fill="#f6beac"/>
        <path id="パス_99" data-name="パス 99" d="M157.588,364.06l-.006.1a.151.151,0,1,1-.3-.016l0-.05.032-1.538.378-.033Z" transform="translate(-112.624 -259.595)" fill="#f6beac"/>
        <g id="グループ_29" data-name="グループ 29" transform="translate(44.556 101.532)" opacity="0.1">
          <g id="グループ_28" data-name="グループ 28">
            <g id="グループ_27" data-name="グループ 27" clip-path="url(#clip-path-9)">
              <path id="パス_100" data-name="パス 100" d="M157.486,358.5l-.389-.315-.169-.582.142.635.417.347Z" transform="translate(-156.928 -357.598)" fill="#1a2c3d"/>
            </g>
          </g>
        </g>
        <path id="パス_101" data-name="パス 101" d="M159.463,290.294a10.009,10.009,0,0,1-.359,1.494l-3.033,7.5-1.094,7.626-2.152-.182.5-7.723.115-.744s2.085-7.348,3.284-9.167a1.44,1.44,0,0,1,1.423-.573c.69.223,1.459.618,1.315,1.767" transform="translate(-109.434 -206.577)" fill="#10375d"/>
        <path id="パス_102" data-name="パス 102" d="M179.372,283.012l2.537-.132.185.417-2.857.154Z" transform="translate(-128.347 -202.562)" fill="#002076"/>
        <path id="パス_103" data-name="パス 103" d="M805.406,311.217l-6.73.052-1.744.556-.688,1.813v2l1.341,9h8.068l.62-7.873,1.383-4.329-.556-.812-.822-.321Z" transform="translate(-570.168 -222.854)" fill="#f7beb0"/>
        <path id="パス_104" data-name="パス 104" d="M799.247,313.273a16.579,16.579,0,0,0,.645-2.477l3.614.11c1.507,0,1.14.576,1.14,2.084l-.532,3.8-1.189,8.378.649,5.463-11.139.007,1.143-6.649.034-2.59-1.546-7.865c0-1.507.969-2.62,2.919-2.74h1.226l.068,2.532c.062.992.459,2.213,1.2,2.107.958-.137,1.441-1.509,1.763-2.161" transform="translate(-567.177 -222.552)" fill="#0581c6"/>
        <path id="パス_105" data-name="パス 105" d="M796.32,493.962l.008,3.06-.551.3-1.682.754v.4l3.6.017.278-.367-.066-4.127Z" transform="translate(-568.629 -353.712)" fill="#f7beb0"/>
        <path id="パス_106" data-name="パス 106" d="M792.52,505.341l.46-.173.252.545,1.418-.216.43-.283.126.953a.332.332,0,0,1-.045.188l-.047.08a.331.331,0,0,1-.286.164h-4.672s-.177-.235-.115-.278c.2-.143,2.479-.979,2.479-.979" transform="translate(-565.717 -361.737)" fill="#0581c6"/>
        <path id="パス_107" data-name="パス 107" d="M849.1,489.588l1.1,2.856-.408.475-1.3,1.306.142.371L852,493.325l.128-.442-1.536-3.831Z" transform="translate(-607.58 -350.196)" fill="#f7beb0"/>
        <path id="パス_108" data-name="パス 108" d="M846.967,500.488l.368-.326.43.419,1.247-.709.3-.418.458.844a.334.334,0,0,1,.025.192l-.015.092a.332.332,0,0,1-.209.255l-.66.252-1.376.526-2.327.891s-.249-.156-.207-.219c.14-.206,1.965-1.8,1.965-1.8" transform="translate(-605.079 -357.645)" fill="#0581c6"/>
        <path id="パス_109" data-name="パス 109" d="M824.116,413.407l1.94-.784-5.411-14-1.92-16.3-.35-1.638H813.3l4,18.508Z" transform="translate(-582.382 -272.599)" fill="#01638c"/>
        <path id="パス_110" data-name="パス 110" d="M796.561,413.768h2.03l.522-13.292,1.113-19.8-5.42,0,.164,4.967L796,400.476Z" transform="translate(-569.138 -272.591)" fill="#01638c"/>
        <path id="パス_111" data-name="パス 111" d="M806.867,291.521l-3.761-.058-.06-1.367-.478-.606.707-.951.28-2.437,3.884.447Z" transform="translate(-574.697 -204.869)" fill="#f7beb0"/>
        <path id="パス_112" data-name="パス 112" d="M810.762,305.842l-1.07-.005a.55.55,0,0,1-.547-.553l.015-2.986,2.17.011-.015,2.986a.55.55,0,0,1-.552.547" transform="translate(-579.405 -216.467)" fill="#f7beb0"/>
        <path id="パス_113" data-name="パス 113" d="M805.144,283.737a2.157,2.157,0,0,1,.615-.286,3.21,3.21,0,0,1,.914-.109.419.419,0,0,1,.063,0l.03,0c.048,0,.088.01.134.014l.085.011a2.456,2.456,0,0,1,.29.047c.731.138,1.956.52,2.035,1.543.06.791,2.056,1.044,2.434,2.213s-.382,1.533-1.278,2.512a2.129,2.129,0,0,1-3.355-.832c-.273-.631.721-1.724.518-2.177s-1,0-1.1-1.355c-.005-.069-.012-.129-.02-.188-.192-.071-.439.008-.825-.1a2.084,2.084,0,0,1-.313-.069c-.408-.176-.306-.438-.306-.438-.108.109-.039.258.045.373a1.36,1.36,0,0,1-.2-.055c-.581-.317-.283-.8.227-1.1" transform="translate(-576.151 -202.889)" fill="#7d5a2d"/>
        <path id="パス_114" data-name="パス 114" d="M741.6,307.051l-.456-.911-.351-.478h0v0s-.193-.182-.263-.235a.157.157,0,0,0-.093-.033h0l-.007,0a.106.106,0,0,0-.084.052c-.047.075,0,.192.16.362l.064.094.015.021h0l.077.2h0l.023.1-.393-.317c-.033,0-.242.044-.507.378a1.828,1.828,0,0,0-.385.885l.912.779.553.263,1.954,1.545.835-1.117Z" transform="translate(-529.459 -218.682)" fill="#f6beac"/>
        <path id="パス_115" data-name="パス 115" d="M736.2,306.539l-.03-.022a.136.136,0,0,0-.16.221l.04.029,1.086.847.162-.283-1.1-.793Z" transform="translate(-526.994 -219.47)" fill="#f6beac"/>
        <path id="パス_116" data-name="パス 116" d="M736.414,308.561a.137.137,0,1,0-.158.223l.069.049.836.633.119-.338-.815-.531Z" transform="translate(-527.171 -220.934)" fill="#f6beac"/>
        <path id="パス_117" data-name="パス 117" d="M736.6,304.835a.136.136,0,0,0-.169.214l.009.007,1.2,1.014.211-.279-1.241-.945Z" transform="translate(-527.302 -218.263)" fill="#f6beac"/>
        <path id="パス_118" data-name="パス 118" d="M738.174,303.911l-.071-.062a.137.137,0,0,0-.18.207l.035.03,1.02.949.259-.225Z" transform="translate(-528.373 -217.554)" fill="#f6beac"/>
        <g id="グループ_32" data-name="グループ 32" transform="translate(211.128 87.489)" opacity="0.1">
          <g id="グループ_31" data-name="グループ 31">
            <g id="グループ_30" data-name="グループ 30" clip-path="url(#clip-path-10)">
              <path id="パス_119" data-name="パス 119" d="M743.69,308.192l-.04.451.272.477-.323-.493.037-.49Z" transform="translate(-743.598 -308.138)" fill="#1a2c3d"/>
            </g>
          </g>
        </g>
        <path id="パス_120" data-name="パス 120" d="M763.222,316.374l-5.46,3.493a2.988,2.988,0,0,1-2.217.447,2.922,2.922,0,0,1-1.059-.431c-.3-.2-.688-.545-.786-.623l-1.981-1.558-3.809-3.147,1.06-1.313,4.167,2.676,2.158,1.34a2.253,2.253,0,0,0,.372.2.576.576,0,0,0,.29.06.625.625,0,0,0,.472-.281l.05-.061.013-.015.037-.032.075-.064.3-.258.6-.515,1.192-1.03,2.385-2.06a1.92,1.92,0,0,1,2.15,3.171" transform="translate(-535.557 -224.067)" fill="#0581c6"/>
        <path id="パス_121" data-name="パス 121" d="M828.532,357.427l-1.035.041h-.6s-.263.047-.348.072a.159.159,0,0,0-.083.056h0s0,0,0,.006a.106.106,0,0,0-.008.1c.032.083.158.111.389.087l.115,0h.028l.206.055,0,0,.1.043-.493.129a.886.886,0,0,0,0,.637,1.846,1.846,0,0,0,.487.842l.93-.143.645-.678,2.872-2.193-.913-1.005Z" transform="translate(-591.794 -254.553)" fill="#f6beac"/>
        <path id="パス_122" data-name="パス 122" d="M823.477,367.691l-.035.011a.137.137,0,1,0,.084.262l.047-.015,1.337-.373-.133-.3-1.3.416Z" transform="translate(-589.575 -262.995)" fill="#f6beac"/>
        <path id="パス_123" data-name="パス 123" d="M825.247,368.889a.138.138,0,0,0,.087.262l.081-.027,1.013-.3-.2-.3-.918.343Z" transform="translate(-590.869 -263.891)" fill="#f6beac"/>
        <path id="パス_124" data-name="パス 124" d="M822.337,366.3a.137.137,0,0,0,.072.265l.012,0,1.543-.368-.1-.338-1.509.44Z" transform="translate(-588.78 -261.976)" fill="#f6beac"/>
        <path id="パス_125" data-name="パス 125" d="M822.528,364.714l-.093.021a.138.138,0,0,0,.06.27l.045-.01,1.38-.259-.027-.345-1.365.324Z" transform="translate(-588.845 -260.93)" fill="#f6beac"/>
        <path id="パス_126" data-name="パス 126" d="M829.522,311.916l2.31,3.933,1.155,1.966.577.983.289.492.5.827a2.732,2.732,0,0,1,.4,1.407,2.52,2.52,0,0,1-.411,1.384,2.784,2.784,0,0,1-.474.542,5.626,5.626,0,0,1-.633.458l-.526.352-.36.236-2.726,1.721-.837-1.2,2.436-2.139.323-.288.156-.14.114-.111a4.538,4.538,0,0,0,.4-.419.624.624,0,0,0,.051-.543,1.417,1.417,0,0,0-.336-.443l-.117-.122-.056-.058c-.016-.014-.056-.068-.083-.1l-.36-.447-.721-.894-1.441-1.788-2.881-3.575a1.923,1.923,0,0,1,3.247-2.032" transform="translate(-591.495 -222.793)" fill="#0581c6"/>
        <path id="パス_127" data-name="パス 127" d="M648.65,277.294a12.645,12.645,0,1,0,12.644,12.645H648.65Z" transform="translate(-455.425 -198.562)" fill="#61cacb"/>
        <path id="パス_128" data-name="パス 128" d="M688.511,267.647v12.644h12.644a12.644,12.644,0,0,0-12.644-12.644" transform="translate(-493.023 -191.655)" fill="#ec6625"/>
        <path id="パス_129" data-name="パス 129" d="M689.141,156.149v-3.764H685.89a8.107,8.107,0,0,0-.993-2.4l2.3-2.3-2.662-2.662-2.3,2.3a8.112,8.112,0,0,0-2.4-.993v-3.251h-3.764v3.251a8.111,8.111,0,0,0-2.4.993l-2.3-2.3-2.661,2.662,2.3,2.3a8.11,8.11,0,0,0-.993,2.4H666.77v3.764h3.251a8.105,8.105,0,0,0,.993,2.4l-2.3,2.3,2.661,2.662,2.3-2.3a8.1,8.1,0,0,0,2.4.993v3.251h3.764V162.2a8.1,8.1,0,0,0,2.4-.993l2.3,2.3,2.662-2.662-2.3-2.3a8.1,8.1,0,0,0,.993-2.4Zm-11.186,2.37a4.252,4.252,0,1,1,4.252-4.252,4.252,4.252,0,0,1-4.252,4.252" transform="translate(-477.455 -102.456)" fill="#bee8e9"/>
        <path id="パス_130" data-name="パス 130" d="M698.521,177.863a3.031,3.031,0,1,1,3.031-3.032,3.035,3.035,0,0,1-3.031,3.032m0-5.64a2.609,2.609,0,1,0,2.609,2.608,2.611,2.611,0,0,0-2.609-2.608" transform="translate(-498.021 -123.021)" fill="#bee8e9"/>
        <path id="パス_131" data-name="パス 131" d="M637.088,95.525l-.958-2.605-2.25.827a5.972,5.972,0,0,0-1.3-1.407l1.006-2.175L631.07,89l-1.006,2.175a5.977,5.977,0,0,0-1.912-.077l-.827-2.25-2.605.957.827,2.25a5.975,5.975,0,0,0-1.407,1.3l-2.176-1.006L620.8,94.865l2.176,1.006a5.966,5.966,0,0,0-.077,1.912l-2.25.827.957,2.605,2.25-.827a5.974,5.974,0,0,0,1.3,1.407l-1.006,2.175,2.519,1.165,1.006-2.175a5.976,5.976,0,0,0,1.912.077l.827,2.25,2.605-.957-.827-2.25a5.985,5.985,0,0,0,1.407-1.3l2.175,1.006,1.165-2.519-2.175-1.006a5.976,5.976,0,0,0,.077-1.912Zm-7.139,4.485a3.135,3.135,0,1,1,1.861-4.024,3.135,3.135,0,0,1-1.861,4.024" transform="translate(-444.428 -63.622)" fill="#bee8e9"/>
        <path id="パス_132" data-name="パス 132" d="M643.963,114.4a2.235,2.235,0,1,1,.769-.137,2.239,2.239,0,0,1-.769.137m0-4.16a1.926,1.926,0,1,0,.806.179,1.919,1.919,0,0,0-.806-.179" transform="translate(-459.522 -78.713)" fill="#bee8e9"/>
        <path id="パス_133" data-name="パス 133" d="M718.92,382.023a5.2,5.2,0,1,1-5.2-5.2,5.2,5.2,0,0,1,5.2,5.2" transform="translate(-507.353 -269.833)" fill="#177baa"/>
        <path id="パス_134" data-name="パス 134" d="M722.507,389.789v-.864a2.492,2.492,0,0,1-1.309-.376l.205-.573a2.281,2.281,0,0,0,1.232.368c.608,0,1.018-.351,1.018-.838,0-.47-.334-.761-.966-1.018-.873-.342-1.412-.736-1.412-1.48a1.4,1.4,0,0,1,1.292-1.378v-.864h.531v.83a2.282,2.282,0,0,1,1.112.3l-.214.565a2.07,2.07,0,0,0-1.078-.291c-.659,0-.907.394-.907.736,0,.445.316.667,1.061.975.881.359,1.326.8,1.326,1.566a1.488,1.488,0,0,1-1.352,1.454v.89Z" transform="translate(-516.43 -274.087)" fill="#fff"/>
        <path id="パス_135" data-name="パス 135" d="M734.966,350.158a3.163,3.163,0,1,1,3.163-3.163,3.166,3.166,0,0,1-3.163,3.163m0-6a2.842,2.842,0,1,0,2.842,2.842,2.845,2.845,0,0,0-2.842-2.842" transform="translate(-524.023 -246.208)" fill="#1b629f"/>
        <path id="パス_136" data-name="パス 136" d="M739.562,349.853v1.284H740.8v.328h-1.235v1.295h-.35v-1.295h-1.235v-.328h1.235v-1.284Z" transform="translate(-528.445 -250.52)" fill="#177baa"/>
        <path id="パス_137" data-name="パス 137" d="M739.317,352.515h-.671v-1.3h-1.235v-.65h1.235v-1.284h.671v1.284h1.235v.65h-1.235Zm-.35-.321H739V350.9l1.235-.007H739v-1.284h-.028v1.284l-1.235.007h1.235Z" transform="translate(-528.039 -250.114)" fill="#177baa"/>
        <path id="パス_138" data-name="パス 138" d="M674.432,381.922a2.325,2.325,0,1,1,2.324-2.325,2.327,2.327,0,0,1-2.324,2.325m0-4.413a2.088,2.088,0,1,0,2.088,2.088,2.091,2.091,0,0,0-2.088-2.088" transform="translate(-481.278 -270.155)" fill="#1b629f"/>
        <path id="パス_139" data-name="パス 139" d="M677.81,381.7v.943h.908v.241h-.908v.952h-.257v-.952h-.908v-.241h.908V381.7Z" transform="translate(-484.526 -273.323)" fill="#177baa"/>
        <path id="パス_140" data-name="パス 140" d="M288.212,68.67a3.163,3.163,0,1,1,3.163-3.163,3.167,3.167,0,0,1-3.163,3.163m0-6a2.842,2.842,0,1,0,2.842,2.842,2.845,2.845,0,0,0-2.842-2.842" transform="translate(-204.115 -44.643)" fill="#1b629f"/>
        <path id="パス_141" data-name="パス 141" d="M292.809,68.365v1.284h1.235v.328h-1.235v1.295h-.35V69.978h-1.235v-.328h1.235V68.365Z" transform="translate(-208.537 -48.955)" fill="#177baa"/>
        <path id="パス_142" data-name="パス 142" d="M292.565,71.028h-.671v-1.3h-1.235v-.649h1.235V67.8h.671v1.284H293.8v.649h-1.235Zm-.35-.321h.028V69.411l1.235-.007h-1.235V68.12h-.028V69.4l-1.235.007h1.235Z" transform="translate(-208.132 -48.549)" fill="#177baa"/>
        <path id="パス_143" data-name="パス 143" d="M170.6,192.6a2.324,2.324,0,1,1,2.324-2.324A2.327,2.327,0,0,1,170.6,192.6m0-4.412a2.088,2.088,0,1,0,2.088,2.088,2.09,2.09,0,0,0-2.088-2.088" transform="translate(-120.498 -134.59)" fill="#1b629f"/>
        <path id="パス_144" data-name="パス 144" d="M173.979,192.38v.943h.907v.241h-.907v.952h-.257v-.952h-.908v-.241h.908v-.943Z" transform="translate(-123.747 -137.758)" fill="#177baa"/>
        <g id="グループ_35" data-name="グループ 35" transform="translate(15.915 149.629)" opacity="0.3">
          <g id="グループ_34" data-name="グループ 34">
            <g id="グループ_33" data-name="グループ 33" clip-path="url(#clip-path-7)">
              <path id="パス_145" data-name="パス 145" d="M73.818,531.67c5.277-.029,15,.538,13.8-2.331s-7.535-.06-12.728-1.02-9.894-2.063-15.205-.646-3.867,3.049-1.536,3.51c4.284.847,5.044,1.212,7.527.748,7.269-1.361,6.086-.25,8.14-.261" transform="translate(-56.053 -526.998)" fill="#1b629f"/>
            </g>
          </g>
        </g>
        <path id="パス_146" data-name="パス 146" d="M131.786,396.62l.99.564.512.421h0s.192.226.247.307a.176.176,0,0,1,.031.106h0v0s0,0,0,.007a.119.119,0,0,1-.063.091c-.087.048-.214-.017-.394-.2l-.1-.077-.023-.018h0l-.215-.1v0l-.115-.032.33.459c-.007.037-.063.267-.452.543a2.046,2.046,0,0,1-1.011.376l-.814-1.066-.26-.633-1.852-2.826,1.3-.864Z" transform="translate(-92.082 -281.909)" fill="#f6beac"/>
        <path id="パス_147" data-name="パス 147" d="M141.435,412.632l.022.035a.152.152,0,1,1-.256.165l-.03-.047-.88-1.264.326-.163.818,1.274Z" transform="translate(-100.458 -294.562)" fill="#f6beac"/>
        <path id="パス_148" data-name="パス 148" d="M139.7,413.043a.153.153,0,1,1-.259.162l-.05-.08-.656-.971.384-.113.543.942Z" transform="translate(-99.344 -295.051)" fill="#f6beac"/>
        <path id="パス_149" data-name="パス 149" d="M142.925,411.893a.152.152,0,0,1-.249.176l-.09-.12-1-1.269.344-.246.98,1.442Z" transform="translate(-101.389 -293.9)" fill="#f6beac"/>
        <path id="パス_150" data-name="パス 150" d="M144.207,410.514l.065.083a.153.153,0,1,1-.242.188l-.031-.04-1-1.2.267-.275Z" transform="translate(-102.399 -293.069)" fill="#f6beac"/>
        <path id="パス_151" data-name="パス 151" d="M106.18,341.38a10.131,10.131,0,0,1,.659,1.409L110.5,351.6l3.537,6.014-1.889,1.11-3.874-5.593-.379-.662s-4.269-7.335-3.9-10.651c.045-.405.232-1.151.764-1.353.687-.26.812-.081,1.424.918" transform="translate(-74.449 -243.718)" fill="#f9af58"/>
        <path id="パス_152" data-name="パス 152" d="M85.35,358.39l-9.468.069a2.177,2.177,0,0,1-.17-1.072.887.887,0,0,1-.506-.766c.123-2.208.149-5.249.16-6.474.018-1.888-.543-8.47-.543-8.47.018-1.891.832-3.366,2.723-3.348l1.382,0,1.091,0,1.087,0,2.214-.006c1.892.018,2.245,2.744,2.227,4.636,0,0-.243,3.939-.227,6.6.008,1.283.321,6.413.319,7.065,0,.483-.34.544-.335.718.01.369.048,1.058.048,1.058" transform="translate(-53.578 -242.257)" fill="#f9af58"/>
        <path id="パス_153" data-name="パス 153" d="M98.56,368.056l-.143-.2v.235l.212.1-.052-.107Z" transform="translate(-70.474 -263.413)" fill="#f9af58"/>
        <path id="パス_154" data-name="パス 154" d="M78.854,529.536l-.164,1.139-.992,1.057v.374h2.984l.049-.61-.158-.721.052-1.248Z" transform="translate(-55.637 -379.179)" fill="#10375d"/>
        <path id="パス_155" data-name="パス 155" d="M121.485,528.854l.251.923,2.613,1.474v.374h-4.535l-.17-.681.18-.842-.124-1.077Z" transform="translate(-85.673 -378.697)" fill="#10375d"/>
        <path id="パス_156" data-name="パス 156" d="M123.186,539.355l.072,0v0Z" transform="translate(-88.21 -386.217)" fill="#2a2a3b"/>
        <path id="パス_157" data-name="パス 157" d="M76.841,405.724h5.583l-.144,1.566-1.3,17.174L79.9,441.928l-2.481-.071-.881-29.222Z" transform="translate(-54.809 -290.528)" fill="#1b629f"/>
        <path id="パス_158" data-name="パス 158" d="M102.745,441.533l-2.446.206-3.857-17.447-3.683-17.442v-1.127h5.449l.786,6.245,1.124,11.934Z" transform="translate(-66.422 -290.528)" fill="#1b629f"/>
        <path id="パス_159" data-name="パス 159" d="M86.821,318.374l1-.023,2.7-.063.222-2.16.459-.1-.615-1.471-.02-1.217c-.077-.668-.66-1.348-1.327-1.271l-.7.08a2.713,2.713,0,0,0-2.385,3.006Z" transform="translate(-61.681 -223.46)" fill="#f7beb0"/>
        <path id="パス_160" data-name="パス 160" d="M89.833,335.535h0a1.285,1.285,0,0,0,1.279-1.292L91.1,332.63l-2.57.013.015,1.614a1.285,1.285,0,0,0,1.292,1.279" transform="translate(-63.392 -238.187)" fill="#f7beb0"/>
        <path id="パス_161" data-name="パス 161" d="M88.222,309.963c-1.133-.392-2.7.076-2.8,1.272l-.359.126a1.176,1.176,0,0,0-.7,1.021l.147.847.527.971a2.032,2.032,0,0,0,.213-.354l.17-.448a1.733,1.733,0,0,1-.037-.348c.011-.071.1-.231.174-.227.1.005.129.145.129.145l.1.325a.193.193,0,0,0,.222-.064l.082-.471a2.2,2.2,0,0,0-.051-.916,2.934,2.934,0,0,1,2.123-.6c1.066.233,1.677.458,1.758-1.568a1.521,1.521,0,0,1-1.7.292" transform="translate(-60.404 -221.747)" fill="#7d5a2d"/>
        <path id="パス_162" data-name="パス 162" d="M94.525,334.079l0,.323-1.217-.323Z" transform="translate(-66.817 -239.225)" fill="#b98e83"/>
        <path id="パス_163" data-name="パス 163" d="M56.955,415.717H52.966v-1.333a.725.725,0,0,1,.724-.724h2.541a.725.725,0,0,1,.723.724Zm-3.506-.482h3.024v-.851a.242.242,0,0,0-.241-.242H53.69a.242.242,0,0,0-.241.242Z" transform="translate(-37.927 -296.21)" fill="#10375d"/>
        <rect id="長方形_70" data-name="長方形 70" width="9.828" height="6.685" transform="translate(12.015 118.671)" fill="#10375d"/>
        <path id="パス_164" data-name="パス 164" d="M52.145,419.079v-1.118H42.317v1.255l4.914,2.087Z" transform="translate(-30.302 -299.29)" fill="#405f7d"/>
        <path id="パス_165" data-name="パス 165" d="M57.775,428.453H56.731a.381.381,0,0,1-.381-.381v-.92a.381.381,0,0,1,.381-.381h1.043a.381.381,0,0,1,.381.381v.92a.381.381,0,0,1-.381.381" transform="translate(-40.351 -305.598)" fill="#f9af58"/>
        <path id="パス_166" data-name="パス 166" d="M58.994,397.6l-.03-.351-.4-1.068.585-4.782-1.55-.168-.549,4.672-.218.809-.045.568,0,.836a2.44,2.44,0,0,0,1.019.15c.477-.014.674-.055.7-.1.055-.083-.009-.2-.02-.28a2.3,2.3,0,0,1,.017-.369l.024-.036.047.114Z" transform="translate(-40.664 -280.152)" fill="#f6beac"/>
        <path id="パス_167" data-name="パス 167" d="M64.787,340.568a10.111,10.111,0,0,1-.579,1.444L60.279,350.7l-1.215,7.056-2.187-.123.764-7.513.224-.729s2.44-8.128,5.11-10.128c.327-.244,1-.617,1.51-.366.659.324.614.537.3,1.667" transform="translate(-40.727 -242.617)" fill="#f9af58"/>
        <path id="パス_168" data-name="パス 168" d="M87.487,337.416l.307-.374,1.12,1.149-.622.894Z" transform="translate(-62.647 -241.346)" fill="#fff"/>
        <path id="パス_169" data-name="パス 169" d="M91.457,341.089v.759l-.418-.158Z" transform="translate(-65.19 -244.244)" fill="#bee8e9"/>
        <path id="パス_170" data-name="パス 170" d="M95.294,337.416l-.307-.374-1.12,1.149.585.841Z" transform="translate(-67.216 -241.346)" fill="#fff"/>
        <path id="パス_171" data-name="パス 171" d="M93.868,341.089v.759l.418-.158Z" transform="translate(-67.216 -244.244)" fill="#bee8e9"/>
        <path id="パス_172" data-name="パス 172" d="M92,342.189h-.434l-.375-.355.185-.266.133-.193H92l.145.21.17.24Z" transform="translate(-65.298 -244.45)" fill="#ec6625"/>
        <path id="パス_173" data-name="パス 173" d="M90.711,344.239,90,359.269l1.308,1.19,1.294-1.252-1.455-14.968Z" transform="translate(-64.445 -246.5)" fill="#ec6625"/>
        <path id="パス_174" data-name="パス 174" d="M93.045,344.239a.9.9,0,0,0-.028.34.146.146,0,0,0,.092.065.14.14,0,0,0,.092-.065c.032-.081-.072-.34-.072-.34Z" transform="translate(-66.599 -246.5)" fill="#b14d1b"/>
        <g id="グループ_38" data-name="グループ 38" transform="translate(97.859 153.734)" opacity="0.2">
          <g id="グループ_37" data-name="グループ 37">
            <g id="グループ_36" data-name="グループ 36" clip-path="url(#clip-path-12)">
              <path id="パス_175" data-name="パス 175" d="M358.868,546.228c-5.392-.029-15.328.549-14.1-2.381s7.7-.061,13-1.042,10.108-2.108,15.535-.66,3.951,3.115,1.57,3.586c-4.377.865-5.153,1.239-7.69.764-7.427-1.39-6.218-.255-8.317-.267" transform="translate(-344.662 -541.454)" fill="#1b629f"/>
            </g>
          </g>
        </g>
        <path id="パス_176" data-name="パス 176" d="M420.8,544.293l-.209,1.448.078.912.4.067,4.445-.211V546.2l-.237-.339-1.984-.417-.723-.678-.035-.55Z" transform="translate(-301.173 -389.696)" fill="#10375d"/>
        <path id="パス_177" data-name="パス 177" d="M366.752,543.7l-.524,1.718v.484a.2.2,0,0,0,.195.195H367.5a.38.38,0,0,0,.064-.005l2.988-.484.034-.217-.254-.358-1.555-.345-.368-.481-.056-.506Z" transform="translate(-262.246 -389.331)" fill="#10375d"/>
        <path id="パス_178" data-name="パス 178" d="M424.584,553.913l.073,0v0Z" transform="translate(-304.033 -396.641)" fill="#2a2a3b"/>
        <path id="パス_179" data-name="パス 179" d="M368.686,456.475l-2.458-.389,4.275-17.56.868-13.088-.089-1.78.607-1.54-.022-.856h5.7l-.147,1.6-3.2,16.349Z" transform="translate(-262.246 -301.654)" fill="#1b629f"/>
        <path id="パス_180" data-name="パス 180" d="M409.369,456.484l-2.505.121-2.509-17.472-2.777-16.719v-1.151h5.567l.238,1.9.727,15.576Z" transform="translate(-287.558 -301.654)" fill="#1b629f"/>
        <path id="パス_181" data-name="パス 181" d="M393.235,329.436l3.35-.317.507-.3.111-1.137.33-.327-.179-1.165.024-.925a1.631,1.631,0,0,0-.878-1.49l-1.348-.323-1.195.1-1.223,1.033-.241,2.436.673,1.184Z" transform="translate(-281.053 -231.615)" fill="#f6beac"/>
        <path id="パス_182" data-name="パス 182" d="M395.644,343.415l1.206.065a.621.621,0,0,0,.653-.586l.022-2.471-2.445-.132-.022,2.472a.62.62,0,0,0,.586.652" transform="translate(-282.889 -243.673)" fill="#f6beac"/>
        <path id="パス_183" data-name="パス 183" d="M395.429,320.489l-.778.525.3.61-.263.665-.051.837-.194.036-.207-.453-.268.1-.082.589-.09.8-.451.546-1.839.029-.72-1.349-.556-1.746,1.059-2.045,1.753-.752,1.243-.622,1.427,1.313Z" transform="translate(-279.434 -227.899)" fill="#ec6625"/>
        <path id="パス_184" data-name="パス 184" d="M392.583,370.268s-1.716-7.039-1.755-9.342c-.028-1.625.217-3.148.223-5.277a19.592,19.592,0,0,0-1.062-6.622c-.32-1.124-1.434-.981-1.977-.964-.433.013-1.342.109-1.342.109l-3.864.208c-3.045.491-3.686,2.3-3.081,6.788l1.076,6-.483,9.281s1.292.934,6.135.427c1.691-.177,6.131-.608,6.131-.608" transform="translate(-271.763 -249.227)" fill="#10375d"/>
        <path id="パス_185" data-name="パス 185" d="M394.367,347.208l2.593-.135.189.426-2.919.157Z" transform="translate(-282.297 -248.529)" fill="#fff"/>
        <path id="パス_186" data-name="パス 186" d="M369.022,413.895l.38,1.085.112.66h0v0s0,.3-.016.4a.174.174,0,0,1-.047.1h0l-.007,0a.119.119,0,0,1-.108.028c-.1-.02-.152-.154-.167-.414l-.026-.125-.006-.029v0l-.1-.217,0,0-.066-.1-.052.568a.991.991,0,0,1-.7.114,2.062,2.062,0,0,1-1.019-.383l.086-1.35.221-.654.283-2.8,1.56.2Z" transform="translate(-262.937 -294.155)" fill="#f6beac"/>
        <path id="パス_187" data-name="パス 187" d="M368.432,429.659l-.006.041a.154.154,0,1,1-.3-.044l.008-.055.166-1.544.356.091-.22,1.511Z" transform="translate(-263.601 -306.52)" fill="#f6beac"/>
        <path id="パス_188" data-name="パス 188" d="M366.963,428.728a.154.154,0,1,1-.3-.048l.015-.094.144-1.173.367.168-.21,1.077Z" transform="translate(-262.552 -306.058)" fill="#f6beac"/>
        <path id="パス_189" data-name="パス 189" d="M370.13,430.221a.154.154,0,1,1-.306-.031v-.013l.123-1.771.392.048-.208,1.747Z" transform="translate(-264.82 -306.77)" fill="#f6beac"/>
        <path id="パス_190" data-name="パス 190" d="M372.111,430.013l-.006.106a.155.155,0,0,1-.309-.017l0-.052.033-1.571.386-.034-.107,1.567Z" transform="translate(-266.233 -306.798)" fill="#f6beac"/>
        <g id="グループ_41" data-name="グループ 41" transform="translate(105.461 120.218)" opacity="0.1">
          <g id="グループ_40" data-name="グループ 40">
            <g id="グループ_39" data-name="グループ 39" clip-path="url(#clip-path-13)">
              <path id="パス_191" data-name="パス 191" d="M372.007,424.326l-.4-.322-.173-.595.145.649.426.354Z" transform="translate(-371.437 -423.41)" fill="#1a2c3d"/>
            </g>
          </g>
        </g>
        <path id="パス_192" data-name="パス 192" d="M369.8,416.088l-1.865-.231-.074,1.111,1.814.21Z" transform="translate(-263.413 -297.784)" fill="#fff"/>
        <path id="パス_193" data-name="パス 193" d="M374.028,354.648a10.219,10.219,0,0,1-.367,1.526l-3.1,7.665-1.118,7.791-2.2-.186.51-7.89.117-.76s2.13-7.507,3.355-9.366a1.471,1.471,0,0,1,1.454-.585c.7.227,1.49.631,1.344,1.8" transform="translate(-262.975 -252.631)" fill="#10375d"/>
        <path id="パス_194" data-name="パス 194" d="M441.282,403.047l1.031.507.542.393h0s.207.215.268.294a.176.176,0,0,1,.037.105h0s0,0,0,.007a.12.12,0,0,1-.058.1c-.084.054-.217,0-.409-.178l-.106-.072-.024-.016h0l-.223-.085v0l-.117-.025.361.441c0,.037-.047.273-.422.575a2.064,2.064,0,0,1-1,.441l-.886-1.023-.3-.621-1.757-2.192,1.254-.95Z" transform="translate(-313.798 -286.966)" fill="#f6beac"/>
        <path id="パス_195" data-name="パス 195" d="M451.166,417.367l.025.034a.154.154,0,1,1-.248.182l-.033-.045-.964-1.218.318-.185.9,1.232Z" transform="translate(-322.194 -297.983)" fill="#f6beac"/>
        <path id="パス_196" data-name="パス 196" d="M449.436,417.878a.154.154,0,0,1-.251.179l-.055-.078-.72-.938.38-.137.605.915Z" transform="translate(-321.094 -298.534)" fill="#f6beac"/>
        <path id="パス_197" data-name="パス 197" d="M452.68,416.527a.154.154,0,0,1-.24.192l-.009-.01-1.153-1.35.313-.24,1.076,1.392Z" transform="translate(-323.148 -297.255)" fill="#f6beac"/>
        <path id="パス_198" data-name="パス 198" d="M453.844,415.072l.07.08a.155.155,0,0,1-.232.2l-.034-.039-1.078-1.143.252-.294Z" transform="translate(-324.073 -296.368)" fill="#f6beac"/>
        <path id="パス_199" data-name="パス 199" d="M440.472,401.975l1.048,1.2-1.468,1.286-1.034-1.286Z" transform="translate(-314.369 -287.843)" fill="#fff"/>
        <path id="パス_200" data-name="パス 200" d="M409.235,349.082a10.191,10.191,0,0,1,.808,1.346l3.162,7.639,4.663,6.341-1.7,1.408L411,359.83l-.449-.624s-3.742-6.848-4.17-9.033a1.471,1.471,0,0,1,.627-1.437,1.58,1.58,0,0,1,2.224.346" transform="translate(-290.988 -249.502)" fill="#10375d"/>
        <path id="パス_201" data-name="パス 201" d="M381.724,119.278a5.074,5.074,0,1,1-5.074-5.074,5.073,5.073,0,0,1,5.074,5.074" transform="translate(-266.076 -81.778)" fill="#1b629f"/>
        <path id="パス_202" data-name="パス 202" d="M385.82,123.279h-.4l.17.17-2.178,1.974-.432-.27-1.842,1.529.064.077,1.786-1.483.435.271,2.238-2.028.158.158Z" transform="translate(-272.923 -88.277)" fill="#cbeced"/>
        <rect id="長方形_73" data-name="長方形 73" width="0.322" height="0.884" transform="translate(108.197 39.112)" fill="#cbeced"/>
        <rect id="長方形_74" data-name="長方形 74" width="0.322" height="1.234" transform="translate(108.936 38.762)" fill="#cbeced"/>
        <rect id="長方形_75" data-name="長方形 75" width="0.322" height="1.995" transform="translate(109.675 38.001)" fill="#cbeced"/>
        <rect id="長方形_76" data-name="長方形 76" width="0.322" height="1.794" transform="translate(110.414 38.201)" fill="#cbeced"/>
        <rect id="長方形_77" data-name="長方形 77" width="0.322" height="2.387" transform="translate(111.153 37.609)" fill="#cbeced"/>
        <rect id="長方形_78" data-name="長方形 78" width="0.322" height="3.028" transform="translate(111.892 36.968)" fill="#cbeced"/>
        <rect id="長方形_79" data-name="長方形 79" width="0.322" height="3.887" transform="translate(112.631 36.109)" fill="#cbeced"/>
        <path id="パス_203" data-name="パス 203" d="M457.267,234.562a20.453,20.453,0,1,0,28.925,0,20.453,20.453,0,0,0-28.925,0m26.087,26.087a16.44,16.44,0,1,1,0-23.25,16.44,16.44,0,0,1,0,23.25" transform="translate(-323.146 -163.673)" fill="#10375d"/>
        <g id="グループ_44" data-name="グループ 44" transform="translate(132.143 68.911)" opacity="0.6">
          <g id="グループ_43" data-name="グループ 43">
            <g id="グループ_42" data-name="グループ 42" clip-path="url(#clip-path-14)">
              <path id="パス_204" data-name="パス 204" d="M470.225,247.52a16.44,16.44,0,1,0,23.25,0,16.44,16.44,0,0,0-23.25,0" transform="translate(-465.41 -242.705)" fill="#fff"/>
            </g>
          </g>
        </g>
        <rect id="長方形_81" data-name="長方形 81" width="5.825" height="15.361" transform="translate(159.338 100.225) rotate(-44.998)" fill="#10375d"/>
        <path id="パス_205" data-name="パス 205" d="M595.654,369.656l-3.291,3.291a1.637,1.637,0,0,1-2.315,0l-13.259-13.259,5.606-5.607,13.259,13.259a1.637,1.637,0,0,1,0,2.315" transform="translate(-413.022 -253.548)" fill="#f9a71a"/>
        <path id="パス_206" data-name="パス 206" d="M470.235,247.52a16.422,16.422,0,0,0-4.447,15.071c5.548-6.016,16.4-14.64,30.741-10.869a16.441,16.441,0,0,0-26.294-4.2" transform="translate(-333.277 -173.794)" fill="#fff"/>
      </g>
    </g>
  </g>
</svg>
