<svg id="グループ_1036" data-name="グループ 1036" xmlns="http://www.w3.org/2000/svg" width="79.689" height="79.688" viewBox="0 0 79.689 79.688">
  <circle id="楕円形_5" data-name="楕円形 5" cx="39.844" cy="39.844" r="39.844" transform="translate(0 0)" fill="#fff"/>
  <g id="グループ_1043" data-name="グループ 1043" transform="translate(14.547 23.861)">
    <g id="handshake-o" transform="translate(0 0)">
      <path id="パス_2039" data-name="パス 2039" d="M50.594,7.027V21.081a1.425,1.425,0,0,1-1.405,1.405h-9.53a5.531,5.531,0,0,1-1.8,2.339,5.856,5.856,0,0,1-2.745,1.131,7.083,7.083,0,0,1-1.768,1.79,6.147,6.147,0,0,1-2.251,1,6.127,6.127,0,0,1-2.295,1.79,5.856,5.856,0,0,1-2.822.538,6.683,6.683,0,0,1-2.767.867,7.2,7.2,0,0,1-2.8-.307,11.631,11.631,0,0,1-2.569-1.175,12.8,12.8,0,0,1-2.273-1.779l-6.3-6.192H1.405a1.351,1.351,0,0,1-.988-.417A1.351,1.351,0,0,1,0,21.081V6.324a1.351,1.351,0,0,1,.417-.988,1.351,1.351,0,0,1,.988-.417H10.65q.307-.307,1.032-1.054t1.043-1.054q.318-.307.966-.878A6.527,6.527,0,0,1,14.8,1.109q.461-.253,1.12-.56A5.35,5.35,0,0,1,17.282.121,8.814,8.814,0,0,1,18.775,0h2.569a6.9,6.9,0,0,1,3.975,1.23A6.9,6.9,0,0,1,29.293,0h3.667a7.972,7.972,0,0,1,1.471.132A8.7,8.7,0,0,1,35.673.45a5.047,5.047,0,0,1,1.131.582q.593.4.977.681a8.14,8.14,0,0,1,.944.867q.56.582.856.922t.9,1.054q.6.714.911,1.065h7.8a1.425,1.425,0,0,1,1.405,1.405Z" transform="translate(0 0)" fill="#abcef7"/>
    </g>
    <g id="handshake-o-2" data-name="handshake-o" transform="translate(0 0)">
      <path id="パス_2039-2" data-name="パス 2039" d="M4.216,19.675a1.258,1.258,0,0,0,1.23-.7,1.493,1.493,0,0,0,0-1.405,1.258,1.258,0,0,0-1.23-.7,1.258,1.258,0,0,0-1.23.7,1.493,1.493,0,0,0,0,1.405A1.258,1.258,0,0,0,4.216,19.675ZM36.562,18.4l-.845-1.1q-.626-.812-.911-1.186t-.834-1.076q-.549-.7-.933-1.164t-.889-1.032q-.505-.571-.988-1.076l-2.745,3.074a5.72,5.72,0,0,1-4.578,2.02,5.736,5.736,0,0,1-4.513-2.152A5.368,5.368,0,0,1,19.368,7.8l3.887-4.524a4.281,4.281,0,0,0-1.12-.362,6.824,6.824,0,0,0-1.043-.132q-.406-.011-1.241.011t-1.076.022a4.734,4.734,0,0,0-3.47,1.449l-3.47,3.47h-3.4V19.675q.11,0,.461-.011t.483,0q.132.011.428.044a1.665,1.665,0,0,1,.45.1q.154.066.384.187a1.658,1.658,0,0,1,.406.3L17.567,26.7a7.326,7.326,0,0,0,4.985,2.437A3.71,3.71,0,0,0,25.3,28.108a3.042,3.042,0,0,0,2.47-.176,2.98,2.98,0,0,0,1.592-1.867,3.481,3.481,0,0,0,2.789-.966,4.11,4.11,0,0,0,.791-1,1.9,1.9,0,0,0,.307-1.109,1.4,1.4,0,0,0,.944.22,3.152,3.152,0,0,0,1.691-.461,2.8,2.8,0,0,0,1.087-1.164,2.941,2.941,0,0,0,.264-1.57A2.983,2.983,0,0,0,36.562,18.4Zm3.491,1.274h2.108V8.432H40.119L36.672,4.48a4.694,4.694,0,0,0-3.711-1.669H29.293a4.02,4.02,0,0,0-3.206,1.471L21.5,9.618a2.476,2.476,0,0,0-.615,1.647,2.53,2.53,0,0,0,.593,1.647,3.083,3.083,0,0,0,2.416,1.142,3.043,3.043,0,0,0,2.437-1.076l4.238-4.787a1.581,1.581,0,0,1,1.175-.472,1.405,1.405,0,0,1,1.219,1.834q.351.417,1.23,1.383t1.318,1.493q.637.791,1.812,2.317T38.736,16.6A5.957,5.957,0,0,1,40.053,19.675Zm6.324,0a1.258,1.258,0,0,0,1.23-.7,1.493,1.493,0,0,0,0-1.405,1.427,1.427,0,0,0-2.459,0,1.493,1.493,0,0,0,0,1.405A1.258,1.258,0,0,0,46.378,19.675ZM50.594,7.027V21.081a1.425,1.425,0,0,1-1.405,1.405h-9.53a5.531,5.531,0,0,1-1.8,2.339,5.856,5.856,0,0,1-2.745,1.131,7.083,7.083,0,0,1-1.768,1.79,6.147,6.147,0,0,1-2.251,1,6.127,6.127,0,0,1-2.295,1.79,5.856,5.856,0,0,1-2.822.538,6.683,6.683,0,0,1-2.767.867,7.2,7.2,0,0,1-2.8-.307,11.631,11.631,0,0,1-2.569-1.175,12.8,12.8,0,0,1-2.273-1.779l-6.3-6.192H1.405a1.351,1.351,0,0,1-.988-.417A1.351,1.351,0,0,1,0,21.081V6.324a1.351,1.351,0,0,1,.417-.988,1.351,1.351,0,0,1,.988-.417H10.65q.307-.307,1.032-1.054t1.043-1.054q.318-.307.966-.878A6.527,6.527,0,0,1,14.8,1.109q.461-.253,1.12-.56A5.35,5.35,0,0,1,17.282.121,8.814,8.814,0,0,1,18.775,0h2.569a6.9,6.9,0,0,1,3.975,1.23A6.9,6.9,0,0,1,29.293,0h3.667a7.972,7.972,0,0,1,1.471.132A8.7,8.7,0,0,1,35.673.45a5.047,5.047,0,0,1,1.131.582q.593.4.977.681a8.14,8.14,0,0,1,.944.867q.56.582.856.922t.9,1.054q.6.714.911,1.065h7.8a1.425,1.425,0,0,1,1.405,1.405Z" transform="translate(0 0)"/>
    </g>
  </g>
</svg>
