<svg xmlns="http://www.w3.org/2000/svg" width="79.689" height="144.857" viewBox="0 0 79.689 144.857">
  <g id="グループ_1611" data-name="グループ 1611" transform="translate(-261 -10351.177)">
    <line id="線_3" data-name="線 3" x1="0.685" y2="49.5" transform="translate(300.5 10444)" fill="none" stroke="#4e3a88" stroke-linecap="round" stroke-width="5" stroke-dasharray="0 15"/>
    <g id="グループ_1000" data-name="グループ 1000" transform="translate(261 10351.177)">
      <circle id="楕円形_5" data-name="楕円形 5" cx="39.844" cy="39.844" r="39.844" transform="translate(0 0)" fill="#fff"/>
      <g id="グループ_999" data-name="グループ 999" transform="translate(22.418 22.256)">
        <path id="Icon_feather-phone-call" data-name="Icon feather-phone-call" d="M36.134,28.4v4.973a3.315,3.315,0,0,1-3.614,3.315,32.8,32.8,0,0,1-14.305-5.089A32.323,32.323,0,0,1,8.27,21.649,32.8,32.8,0,0,1,3.181,7.277a3.315,3.315,0,0,1,3.3-3.614h4.973a3.315,3.315,0,0,1,3.315,2.851,21.284,21.284,0,0,0,1.16,4.658,3.315,3.315,0,0,1-.746,3.5l-2.105,2.105a26.522,26.522,0,0,0,9.946,9.946l2.105-2.105a3.315,3.315,0,0,1,3.5-.746,21.283,21.283,0,0,0,4.658,1.16A3.315,3.315,0,0,1,36.134,28.4Z" transform="translate(-3.168 -1.748)" fill="#e3dafc"/>
        <path id="Icon_feather-phone-call-2" data-name="Icon feather-phone-call" d="M24.614,8.13a8.288,8.288,0,0,1,6.548,6.548M24.614,1.5A15.066,15.066,0,0,1,32.98,5.268a14.75,14.75,0,0,1,4.812,9.393M36.134,27.889v4.973a3.315,3.315,0,0,1-3.614,3.315,32.8,32.8,0,0,1-14.305-5.089A32.323,32.323,0,0,1,8.27,21.143,32.8,32.8,0,0,1,3.181,6.771a3.315,3.315,0,0,1,3.3-3.614h4.973a3.315,3.315,0,0,1,3.315,2.851,21.284,21.284,0,0,0,1.16,4.658,3.315,3.315,0,0,1-.746,3.5l-2.105,2.105a26.522,26.522,0,0,0,9.946,9.946l2.105-2.105a3.315,3.315,0,0,1,3.5-.746,21.283,21.283,0,0,0,4.658,1.16A3.315,3.315,0,0,1,36.134,27.889Z" transform="translate(-3.168 -1.5)" fill="none" stroke="#000" stroke-linecap="round" stroke-linejoin="round" stroke-width="2"/>
      </g>
    </g>
  </g>
</svg>
