<svg xmlns="http://www.w3.org/2000/svg" width="79.689" height="131.015" viewBox="0 0 79.689 131.015">
  <g id="グループ_1625" data-name="グループ 1625" transform="translate(-261 -11254.656)">
    <line id="線_19" data-name="線 19" y2="34.152" transform="translate(300.844 11349.019)" fill="none" stroke="#4e3a88" stroke-linecap="round" stroke-width="5" stroke-dasharray="0 15"/>
    <g id="グループ_1034" data-name="グループ 1034" transform="translate(261 11254.656)">
      <circle id="楕円形_5" data-name="楕円形 5" cx="39.844" cy="39.844" r="39.844" transform="translate(0 0)" fill="#fff"/>
      <g id="users" transform="translate(19.219 36.661)">
        <path id="パス_2030" data-name="パス 2030" d="M28.375,68.375a6.188,6.188,0,1,1,6.188-6.188A6.188,6.188,0,0,1,28.375,68.375Zm16.5,0a6.188,6.188,0,1,1,6.188-6.188A6.188,6.188,0,0,1,44.876,68.375ZM28.375,72.5a16.459,16.459,0,0,1,12.375,5.585v2.665H16V78.086A16.459,16.459,0,0,1,28.375,72.5Zm16.5,8.25V76.526l-1.031-1.169A20.741,20.741,0,0,0,41.266,72.9a16.531,16.531,0,0,1,15.985,5.189v2.665Z" transform="translate(-16 -56)" fill="#abcef7" stroke="#171717" stroke-width="2" fill-rule="evenodd"/>
      </g>
      <path id="Icon_fa-solid-comments" data-name="Icon fa-solid-comments" d="M10.337,17.495a11.263,11.263,0,0,0,7.873-3.078,7.9,7.9,0,0,0,2.465-5.669C20.675,3.916,16.048,0,10.337,0S0,3.916,0,8.747a7.869,7.869,0,0,0,1.968,5.139,4.613,4.613,0,0,1-.706,1.228,5.7,5.7,0,0,1-.661.711c-.089.08-.164.144-.214.184a.439.439,0,0,1-.055.04l-.01.01a.793.793,0,0,0-.283.885.806.806,0,0,0,.755.552,8.981,8.981,0,0,0,3.086-.621,11.049,11.049,0,0,0,1.257-.567A11.712,11.712,0,0,0,10.337,17.495Z" transform="translate(33.486 13.487)" fill="#e3dafc" stroke="#000" stroke-width="2"/>
    </g>
  </g>
</svg>
