<svg xmlns="http://www.w3.org/2000/svg" width="79.689" height="130.528" viewBox="0 0 79.689 130.528">
  <g id="グループ_1612" data-name="グループ 1612" transform="translate(-261 -10509.972)">
    <line id="線_4" data-name="線 4" y2="33" transform="translate(301.185 10605)" fill="none" stroke="#4e3a88" stroke-linecap="round" stroke-width="5" stroke-dasharray="0 15"/>
    <g id="グループ_1001" data-name="グループ 1001" transform="translate(261 10509.972)">
      <circle id="楕円形_5" data-name="楕円形 5" cx="39.844" cy="39.844" r="39.844" fill="#fff"/>
      <g id="グループ_1011" data-name="グループ 1011" transform="translate(17.989 19.942)">
        <path id="Icon_fa-solid-comments" data-name="Icon fa-solid-comments" d="M40.17,17.806c0,8.377-7.393,14.688-16.151,15.442,1.813,5.55,7.825,9.623,14.957,9.623a17.636,17.636,0,0,0,7.81-1.783,16.447,16.447,0,0,0,1.88.85,13.481,13.481,0,0,0,4.633.932,1.2,1.2,0,0,0,.7-2.163l-.015-.015c-.015-.015-.045-.03-.082-.06-.075-.06-.186-.149-.321-.276a8.556,8.556,0,0,1-.992-1.067,7.043,7.043,0,0,1-1.059-1.843,11.782,11.782,0,0,0,2.954-7.713c0-6.923-6.333-12.6-14.368-13.092.03.38.045.768.045,1.156Z" transform="translate(-10.779 -5.912)" fill="#abcef7" stroke="#000" stroke-width="2"/>
        <path id="Icon_fa-solid-comments-2" data-name="Icon fa-solid-comments" d="M16.88,28.566A18.39,18.39,0,0,0,29.735,23.54a12.9,12.9,0,0,0,4.024-9.257C33.76,6.395,26.2,0,16.88,0S0,6.395,0,14.283a12.849,12.849,0,0,0,3.214,8.391,7.533,7.533,0,0,1-1.152,2,9.307,9.307,0,0,1-1.079,1.16c-.146.13-.268.235-.349.3a.717.717,0,0,1-.089.065l-.016.016a1.294,1.294,0,0,0-.463,1.445,1.317,1.317,0,0,0,1.234.9,14.665,14.665,0,0,0,5.04-1.014,18.042,18.042,0,0,0,2.053-.925A19.124,19.124,0,0,0,16.88,28.566Z" transform="translate(0.001)" fill="#e3dafc" stroke="#000" stroke-width="2"/>
      </g>
    </g>
  </g>
</svg>
