<svg xmlns="http://www.w3.org/2000/svg" width="23.539" height="26.673" viewBox="0 0 23.539 26.673">
  <path id="Icon_fa-solid-paperclip" data-name="Icon fa-solid-paperclip" d="M19.565,4.645a3.347,3.347,0,0,0-4.732,0L4.984,14.493a5.768,5.768,0,0,0,8.157,8.157l8.136-8.136a1.5,1.5,0,0,1,2.12,2.12L15.261,24.77a8.766,8.766,0,0,1-12.4-12.4l9.849-9.849A6.343,6.343,0,0,1,21.684,11.5l-9.421,9.421a3.921,3.921,0,0,1-5.545-5.545l7.708-7.708a1.5,1.5,0,1,1,2.12,2.12L8.838,17.491A.923.923,0,1,0,10.144,18.8l9.421-9.421a3.347,3.347,0,0,0,0-4.732Z" transform="translate(-0.295 -0.666)" fill="#5b8fcb"/>
</svg>
