<svg xmlns="http://www.w3.org/2000/svg" width="21.062" height="23.867" viewBox="0 0 21.062 23.867">
  <path id="Icon_fa-solid-paperclip" data-name="Icon fa-solid-paperclip" d="M17.537,4.226a3,3,0,0,0-4.234,0L4.491,13.038a5.161,5.161,0,1,0,7.3,7.3l7.28-7.28a1.341,1.341,0,0,1,1.9,1.9l-7.28,7.28A7.843,7.843,0,0,1,2.594,11.142l8.812-8.812a5.676,5.676,0,0,1,8.027,8.027L11,18.786a3.509,3.509,0,0,1-4.962-4.962l6.9-6.9a1.341,1.341,0,1,1,1.9,1.9l-6.9,6.9a.826.826,0,0,0,1.169,1.169L17.537,8.46a3,3,0,0,0,0-4.234Z" transform="translate(-0.295 -0.666)" fill="#63c0cd"/>
</svg>
