<svg xmlns="http://www.w3.org/2000/svg" width="29.785" height="33.75" viewBox="0 0 29.785 33.75">
  <path id="Icon_fa-solid-paperclip" data-name="Icon fa-solid-paperclip" d="M24.677,5.7a4.235,4.235,0,0,0-5.987,0L6.228,18.162A7.3,7.3,0,0,0,16.55,28.484L26.844,18.189a1.9,1.9,0,0,1,2.682,2.682L19.232,31.166A11.091,11.091,0,0,1,3.546,15.48L16.008,3.018A8.026,8.026,0,1,1,27.359,14.369l-11.92,11.92a4.961,4.961,0,0,1-7.017-7.017L18.175,9.52A1.9,1.9,0,1,1,20.857,12.2L11.1,21.955a1.169,1.169,0,0,0,1.653,1.653l11.92-11.92a4.235,4.235,0,0,0,0-5.987Z" transform="translate(-0.295 -0.666)" fill="#4e3a88"/>
</svg>
